<mxfile host="Electron" modified="2023-04-23T13:18:01.213Z" agent="Mozilla/5.0 (Macintosh; Intel Mac OS X 10_15_7) AppleWebKit/537.36 (KHTML, like Gecko) draw.io/21.2.1 Chrome/112.0.5615.87 Electron/24.1.2 Safari/537.36" etag="hr-EbJ7LhN7y549tSyaS" version="21.2.1" type="device">
  <diagram name="Страница 1" id="6tMGNJNM4NKZPwXtHnVI">
    <mxGraphModel dx="1703" dy="2359" grid="1" gridSize="10" guides="1" tooltips="1" connect="1" arrows="1" fold="1" page="1" pageScale="1" pageWidth="827" pageHeight="1169" math="0" shadow="0">
      <root>
        <mxCell id="0" />
        <mxCell id="1" parent="0" />
        <mxCell id="Q8PbNGjHBaHUHqc-n6fm-56" style="edgeStyle=orthogonalEdgeStyle;rounded=0;orthogonalLoop=1;jettySize=auto;html=1;entryX=0.5;entryY=0;entryDx=0;entryDy=0;fontSize=14;" parent="1" source="Q8PbNGjHBaHUHqc-n6fm-1" target="Q8PbNGjHBaHUHqc-n6fm-55" edge="1">
          <mxGeometry relative="1" as="geometry" />
        </mxCell>
        <mxCell id="Q8PbNGjHBaHUHqc-n6fm-1" value="Вход" style="rounded=1;whiteSpace=wrap;html=1;arcSize=50;fontSize=14;" parent="1" vertex="1">
          <mxGeometry x="100" y="-30" width="200" height="30" as="geometry" />
        </mxCell>
        <mxCell id="Q8PbNGjHBaHUHqc-n6fm-65" style="edgeStyle=orthogonalEdgeStyle;rounded=0;orthogonalLoop=1;jettySize=auto;html=1;endArrow=none;endFill=0;fontSize=14;" parent="1" source="Q8PbNGjHBaHUHqc-n6fm-6" edge="1">
          <mxGeometry relative="1" as="geometry">
            <mxPoint x="200" y="40" as="targetPoint" />
            <Array as="points">
              <mxPoint x="280" y="40" />
              <mxPoint x="280" y="40" />
            </Array>
          </mxGeometry>
        </mxCell>
        <mxCell id="Q8PbNGjHBaHUHqc-n6fm-6" value="Словарь (team)" style="strokeWidth=1;html=1;shape=mxgraph.flowchart.annotation_2;align=left;labelPosition=right;pointerEvents=1;fontSize=14;" parent="1" vertex="1">
          <mxGeometry x="350" y="10" width="40" height="60" as="geometry" />
        </mxCell>
        <mxCell id="Q8PbNGjHBaHUHqc-n6fm-44" style="edgeStyle=orthogonalEdgeStyle;rounded=0;orthogonalLoop=1;jettySize=auto;html=1;entryX=0.5;entryY=0;entryDx=0;entryDy=0;" parent="1" edge="1">
          <mxGeometry relative="1" as="geometry">
            <mxPoint x="200.0000000000001" y="260" as="sourcePoint" />
          </mxGeometry>
        </mxCell>
        <mxCell id="Q8PbNGjHBaHUHqc-n6fm-45" style="edgeStyle=orthogonalEdgeStyle;rounded=0;orthogonalLoop=1;jettySize=auto;html=1;entryX=0.5;entryY=0;entryDx=0;entryDy=0;" parent="1" edge="1">
          <mxGeometry relative="1" as="geometry">
            <mxPoint x="200.0000000000001" y="360" as="sourcePoint" />
          </mxGeometry>
        </mxCell>
        <mxCell id="Q8PbNGjHBaHUHqc-n6fm-53" style="edgeStyle=orthogonalEdgeStyle;rounded=0;orthogonalLoop=1;jettySize=auto;html=1;entryX=0.5;entryY=0;entryDx=0;entryDy=0;" parent="1" edge="1">
          <mxGeometry relative="1" as="geometry">
            <mxPoint x="200.0000000000001" y="460" as="sourcePoint" />
          </mxGeometry>
        </mxCell>
        <mxCell id="Q8PbNGjHBaHUHqc-n6fm-54" style="edgeStyle=orthogonalEdgeStyle;rounded=0;orthogonalLoop=1;jettySize=auto;html=1;" parent="1" edge="1">
          <mxGeometry relative="1" as="geometry">
            <mxPoint x="200.0000000000001" y="560" as="sourcePoint" />
          </mxGeometry>
        </mxCell>
        <mxCell id="Q8PbNGjHBaHUHqc-n6fm-50" style="edgeStyle=orthogonalEdgeStyle;rounded=0;orthogonalLoop=1;jettySize=auto;html=1;entryX=0.5;entryY=0;entryDx=0;entryDy=0;" parent="1" edge="1">
          <mxGeometry relative="1" as="geometry">
            <mxPoint x="200.0000000000001" y="660" as="sourcePoint" />
          </mxGeometry>
        </mxCell>
        <mxCell id="Q8PbNGjHBaHUHqc-n6fm-51" style="edgeStyle=orthogonalEdgeStyle;rounded=0;orthogonalLoop=1;jettySize=auto;html=1;entryX=0.5;entryY=0;entryDx=0;entryDy=0;" parent="1" edge="1">
          <mxGeometry relative="1" as="geometry">
            <mxPoint x="200.0000000000001" y="760" as="sourcePoint" />
          </mxGeometry>
        </mxCell>
        <mxCell id="Q8PbNGjHBaHUHqc-n6fm-52" style="edgeStyle=orthogonalEdgeStyle;rounded=0;orthogonalLoop=1;jettySize=auto;html=1;entryX=0;entryY=0.5;entryDx=0;entryDy=0;" parent="1" edge="1">
          <mxGeometry relative="1" as="geometry">
            <mxPoint x="100" y="630" as="targetPoint" />
            <Array as="points">
              <mxPoint x="200" y="880" />
              <mxPoint x="60" y="880" />
              <mxPoint x="60" y="630" />
            </Array>
          </mxGeometry>
        </mxCell>
        <mxCell id="Q8PbNGjHBaHUHqc-n6fm-80" style="edgeStyle=orthogonalEdgeStyle;rounded=0;orthogonalLoop=1;jettySize=auto;html=1;exitX=1;exitY=0.5;exitDx=0;exitDy=0;fontSize=14;" parent="1" source="Q8PbNGjHBaHUHqc-n6fm-55" target="Q8PbNGjHBaHUHqc-n6fm-62" edge="1">
          <mxGeometry relative="1" as="geometry" />
        </mxCell>
        <mxCell id="Q8PbNGjHBaHUHqc-n6fm-82" style="edgeStyle=orthogonalEdgeStyle;rounded=0;orthogonalLoop=1;jettySize=auto;html=1;entryX=0.5;entryY=0;entryDx=0;entryDy=0;fontSize=14;exitX=0;exitY=0.5;exitDx=0;exitDy=0;" parent="1" source="Q8PbNGjHBaHUHqc-n6fm-55" target="Q8PbNGjHBaHUHqc-n6fm-57" edge="1">
          <mxGeometry relative="1" as="geometry" />
        </mxCell>
        <mxCell id="Q8PbNGjHBaHUHqc-n6fm-55" value="Ошибка обнаружена?" style="rhombus;whiteSpace=wrap;html=1;fontSize=14;" parent="1" vertex="1">
          <mxGeometry x="100" y="100" width="200" height="60" as="geometry" />
        </mxCell>
        <mxCell id="Q8PbNGjHBaHUHqc-n6fm-86" style="edgeStyle=orthogonalEdgeStyle;rounded=0;orthogonalLoop=1;jettySize=auto;html=1;fontSize=14;" parent="1" source="Q8PbNGjHBaHUHqc-n6fm-57" edge="1">
          <mxGeometry relative="1" as="geometry">
            <mxPoint x="80" y="300" as="targetPoint" />
            <Array as="points">
              <mxPoint x="80" y="300" />
            </Array>
          </mxGeometry>
        </mxCell>
        <mxCell id="Q8PbNGjHBaHUHqc-n6fm-57" value="Ввод названия команды" style="shape=parallelogram;perimeter=parallelogramPerimeter;whiteSpace=wrap;html=1;fixedSize=1;fontSize=14;" parent="1" vertex="1">
          <mxGeometry x="-20" y="200" width="200" height="60" as="geometry" />
        </mxCell>
        <mxCell id="Q8PbNGjHBaHUHqc-n6fm-59" value="Нет" style="text;html=1;align=center;verticalAlign=middle;resizable=0;points=[];autosize=1;strokeColor=none;fillColor=none;fontSize=14;" parent="1" vertex="1">
          <mxGeometry x="155" y="160" width="50" height="30" as="geometry" />
        </mxCell>
        <mxCell id="Q8PbNGjHBaHUHqc-n6fm-85" style="edgeStyle=orthogonalEdgeStyle;rounded=0;orthogonalLoop=1;jettySize=auto;html=1;exitX=0.5;exitY=1;exitDx=0;exitDy=0;fontSize=14;" parent="1" source="Q8PbNGjHBaHUHqc-n6fm-62" edge="1">
          <mxGeometry relative="1" as="geometry">
            <mxPoint x="202.85714285714286" y="80" as="targetPoint" />
            <Array as="points">
              <mxPoint x="420" y="460" />
              <mxPoint x="560" y="460" />
              <mxPoint x="560" y="80" />
            </Array>
          </mxGeometry>
        </mxCell>
        <mxCell id="Q8PbNGjHBaHUHqc-n6fm-62" value="Вывод: Введено&lt;br style=&quot;font-size: 14px;&quot;&gt;&amp;nbsp;неверное&lt;br style=&quot;font-size: 14px;&quot;&gt;значение" style="shape=parallelogram;perimeter=parallelogramPerimeter;whiteSpace=wrap;html=1;fixedSize=1;fontSize=14;" parent="1" vertex="1">
          <mxGeometry x="320" y="360" width="200" height="60" as="geometry" />
        </mxCell>
        <mxCell id="Q8PbNGjHBaHUHqc-n6fm-83" value="Да" style="text;html=1;align=center;verticalAlign=middle;resizable=0;points=[];autosize=1;strokeColor=none;fillColor=none;fontSize=14;" parent="1" vertex="1">
          <mxGeometry x="290" y="100" width="40" height="30" as="geometry" />
        </mxCell>
        <mxCell id="Q8PbNGjHBaHUHqc-n6fm-101" style="edgeStyle=orthogonalEdgeStyle;rounded=0;orthogonalLoop=1;jettySize=auto;html=1;entryX=0.5;entryY=0;entryDx=0;entryDy=0;fontSize=15;" parent="1" target="Q8PbNGjHBaHUHqc-n6fm-100" edge="1">
          <mxGeometry relative="1" as="geometry">
            <mxPoint x="80" y="880" as="sourcePoint" />
          </mxGeometry>
        </mxCell>
        <mxCell id="Q8PbNGjHBaHUHqc-n6fm-117" style="edgeStyle=orthogonalEdgeStyle;rounded=0;orthogonalLoop=1;jettySize=auto;html=1;entryX=0.5;entryY=0;entryDx=0;entryDy=0;fontSize=15;" parent="1" target="Q8PbNGjHBaHUHqc-n6fm-35" edge="1">
          <mxGeometry relative="1" as="geometry">
            <Array as="points">
              <mxPoint x="260" y="650.0000000000005" />
              <mxPoint x="260" y="1511" />
            </Array>
            <mxPoint x="179.69696969697134" y="650.0909090909086" as="sourcePoint" />
          </mxGeometry>
        </mxCell>
        <mxCell id="Q8PbNGjHBaHUHqc-n6fm-116" style="edgeStyle=orthogonalEdgeStyle;rounded=0;orthogonalLoop=1;jettySize=auto;html=1;entryX=0;entryY=0.5;entryDx=0;entryDy=0;fontSize=15;" parent="1" source="Q8PbNGjHBaHUHqc-n6fm-114" edge="1">
          <mxGeometry relative="1" as="geometry">
            <Array as="points">
              <mxPoint x="80" y="1460" />
              <mxPoint x="-100" y="1460" />
              <mxPoint x="-100" y="650" />
            </Array>
            <mxPoint x="-20" y="650" as="targetPoint" />
          </mxGeometry>
        </mxCell>
        <mxCell id="wm96Qt1JqF1Xcq8qNvsb-9" style="edgeStyle=orthogonalEdgeStyle;rounded=0;orthogonalLoop=1;jettySize=auto;html=1;entryX=0.5;entryY=0;entryDx=0;entryDy=0;fontSize=14;" edge="1" parent="1" source="wm96Qt1JqF1Xcq8qNvsb-1" target="wm96Qt1JqF1Xcq8qNvsb-2">
          <mxGeometry relative="1" as="geometry" />
        </mxCell>
        <mxCell id="wm96Qt1JqF1Xcq8qNvsb-13" style="edgeStyle=orthogonalEdgeStyle;rounded=0;orthogonalLoop=1;jettySize=auto;html=1;exitX=1;exitY=0.5;exitDx=0;exitDy=0;fontSize=14;" edge="1" parent="1" source="wm96Qt1JqF1Xcq8qNvsb-1" target="wm96Qt1JqF1Xcq8qNvsb-12">
          <mxGeometry relative="1" as="geometry">
            <Array as="points">
              <mxPoint x="220" y="330" />
              <mxPoint x="220" y="640" />
              <mxPoint x="80" y="640" />
            </Array>
          </mxGeometry>
        </mxCell>
        <mxCell id="wm96Qt1JqF1Xcq8qNvsb-1" value="Цикл i &lt;br&gt;для ключей словаря с разными регистрами" style="shape=hexagon;perimeter=hexagonPerimeter2;whiteSpace=wrap;html=1;fixedSize=1;fontSize=14;" vertex="1" parent="1">
          <mxGeometry x="-20" y="300" width="200" height="60" as="geometry" />
        </mxCell>
        <mxCell id="wm96Qt1JqF1Xcq8qNvsb-6" style="edgeStyle=orthogonalEdgeStyle;rounded=0;orthogonalLoop=1;jettySize=auto;html=1;entryX=0.5;entryY=0;entryDx=0;entryDy=0;fontSize=14;" edge="1" parent="1" source="wm96Qt1JqF1Xcq8qNvsb-2" target="wm96Qt1JqF1Xcq8qNvsb-5">
          <mxGeometry relative="1" as="geometry" />
        </mxCell>
        <mxCell id="wm96Qt1JqF1Xcq8qNvsb-10" style="edgeStyle=orthogonalEdgeStyle;rounded=0;orthogonalLoop=1;jettySize=auto;html=1;entryX=0;entryY=0.5;entryDx=0;entryDy=0;exitX=0;exitY=0.5;exitDx=0;exitDy=0;fontSize=14;" edge="1" parent="1" source="wm96Qt1JqF1Xcq8qNvsb-2" target="wm96Qt1JqF1Xcq8qNvsb-1">
          <mxGeometry relative="1" as="geometry">
            <Array as="points">
              <mxPoint x="-60" y="450" />
              <mxPoint x="-60" y="340" />
            </Array>
          </mxGeometry>
        </mxCell>
        <mxCell id="wm96Qt1JqF1Xcq8qNvsb-2" value="Ключ есть в словаре" style="rhombus;whiteSpace=wrap;html=1;fontSize=14;" vertex="1" parent="1">
          <mxGeometry x="-20" y="402" width="200" height="60" as="geometry" />
        </mxCell>
        <mxCell id="wm96Qt1JqF1Xcq8qNvsb-8" style="edgeStyle=orthogonalEdgeStyle;rounded=0;orthogonalLoop=1;jettySize=auto;html=1;entryX=0;entryY=0.5;entryDx=0;entryDy=0;fontSize=14;" edge="1" parent="1" source="wm96Qt1JqF1Xcq8qNvsb-5" target="wm96Qt1JqF1Xcq8qNvsb-1">
          <mxGeometry relative="1" as="geometry">
            <Array as="points">
              <mxPoint x="80" y="600" />
              <mxPoint x="-60" y="600" />
              <mxPoint x="-60" y="340" />
              <mxPoint x="-20" y="340" />
            </Array>
          </mxGeometry>
        </mxCell>
        <mxCell id="wm96Qt1JqF1Xcq8qNvsb-5" value="club = i" style="rounded=0;whiteSpace=wrap;html=1;fontSize=14;" vertex="1" parent="1">
          <mxGeometry x="-20" y="502" width="200" height="60" as="geometry" />
        </mxCell>
        <mxCell id="wm96Qt1JqF1Xcq8qNvsb-7" value="Да" style="text;html=1;align=center;verticalAlign=middle;resizable=0;points=[];autosize=1;strokeColor=none;fillColor=none;fontSize=14;" vertex="1" parent="1">
          <mxGeometry x="80" y="462" width="40" height="30" as="geometry" />
        </mxCell>
        <mxCell id="wm96Qt1JqF1Xcq8qNvsb-11" value="Нет" style="text;html=1;align=center;verticalAlign=middle;resizable=0;points=[];autosize=1;strokeColor=none;fillColor=none;fontSize=14;" vertex="1" parent="1">
          <mxGeometry x="-55" y="400" width="50" height="30" as="geometry" />
        </mxCell>
        <mxCell id="wm96Qt1JqF1Xcq8qNvsb-15" style="edgeStyle=orthogonalEdgeStyle;rounded=0;orthogonalLoop=1;jettySize=auto;html=1;entryX=0.5;entryY=0;entryDx=0;entryDy=0;fontSize=14;" edge="1" parent="1" source="wm96Qt1JqF1Xcq8qNvsb-12" target="wm96Qt1JqF1Xcq8qNvsb-14">
          <mxGeometry relative="1" as="geometry" />
        </mxCell>
        <mxCell id="wm96Qt1JqF1Xcq8qNvsb-12" value="Удаление из словаря&lt;br style=&quot;font-size: 14px;&quot;&gt;введеной команды club" style="rounded=0;whiteSpace=wrap;html=1;fontSize=14;" vertex="1" parent="1">
          <mxGeometry x="-20" y="680" width="200" height="60" as="geometry" />
        </mxCell>
        <mxCell id="wm96Qt1JqF1Xcq8qNvsb-14" value="Выход" style="rounded=1;whiteSpace=wrap;html=1;arcSize=50;fontSize=14;" vertex="1" parent="1">
          <mxGeometry x="-20" y="780" width="200" height="30" as="geometry" />
        </mxCell>
      </root>
    </mxGraphModel>
  </diagram>
</mxfile>
